<svg width="800" height="800" viewBox="0 0 800 800" fill="none" xmlns="http://www.w3.org/2000/svg">
<path d="M523.698 639.836C520.346 639.277 516.904 639.757 513.832 641.209C478.549 657.896 439.898 666.667 399.969 666.667C252.693 666.667 133.303 547.276 133.303 400C133.303 252.724 252.693 133.333 399.969 133.333C547.245 133.333 666.636 252.724 666.636 400C666.636 456.897 648.793 511.062 616.151 556.165C612.632 561.027 611.999 567.406 614.494 572.864L655.109 661.738L523.698 639.836ZM680.563 699.773C693.736 701.969 704.012 688.553 698.461 676.406L648.772 567.675C681.921 518.587 699.969 460.633 699.969 400C699.969 234.315 565.655 100 399.969 100C234.284 100 99.9692 234.315 99.9692 400C99.9692 565.685 234.284 700 399.969 700C443.052 700 484.874 690.902 523.285 673.56L680.563 699.773Z" fill="white"/>
</svg>
