<svg width="800" height="800" viewBox="0 0 800 800" fill="none" xmlns="http://www.w3.org/2000/svg">
<g clip-path="url(#clip0_3_29)">
<path d="M215 573.867L481.033 445.7L580.367 208.533L343.167 307.867L215 573.867ZM439.7 428.6L286.4 502.467L360.267 349.133L439.7 428.6ZM400 40C328.799 40 259.196 61.1136 199.995 100.671C140.793 140.228 94.651 196.453 67.4034 262.234C40.1559 328.015 33.0267 400.399 46.9173 470.233C60.808 540.066 95.0947 604.212 145.442 654.558C195.788 704.905 259.934 739.192 329.768 753.083C399.601 766.973 471.985 759.844 537.766 732.597C603.547 705.349 659.772 659.207 699.329 600.005C738.886 540.804 760 471.201 760 400C759.894 304.555 721.932 213.049 654.442 145.559C586.951 78.0684 495.445 40.1059 400 40ZM400 726.667C335.391 726.667 272.234 707.508 218.514 671.613C164.794 635.719 122.924 584.7 98.1994 525.01C73.4748 465.319 67.0057 399.638 79.6102 336.271C92.2147 272.903 123.327 214.697 169.012 169.012C214.697 123.327 272.903 92.2147 336.271 79.6102C399.638 67.0056 465.319 73.4747 525.01 98.1994C584.7 122.924 635.719 164.794 671.613 218.514C707.508 272.234 726.667 335.391 726.667 400C726.578 486.61 692.134 569.648 630.891 630.891C569.648 692.134 486.61 726.578 400 726.667Z" fill="white"/>
</g>
<defs>
<clipPath id="clip0_3_29">
<rect width="800" height="800" fill="white"/>
</clipPath>
</defs>
</svg>
