<svg width="20" height="20" viewBox="0 0 29 29" fill="none" xmlns="http://www.w3.org/2000/svg">
<rect width="29" height="29" fill="none"/>
<path fill-rule="evenodd" clip-rule="evenodd" d="M25.5637 13.7546L14.496 24.1366L3.45207 13.7784C1.11673 11.409 1.11673 7.55369 3.45207 5.18422C4.57797 4.04298 6.07573 3.41351 7.67073 3.41351H7.67243C9.26573 3.41351 10.7635 4.04298 11.8877 5.18422L11.8894 5.18593C13.0187 6.33057 13.643 7.85733 13.643 9.48133H15.3489C15.3489 7.85733 15.9716 6.33057 17.1026 5.18422C18.2267 4.04298 19.7245 3.41351 21.3195 3.41351H21.3212C22.9145 3.41351 24.414 4.04298 25.5381 5.18422C27.8735 7.55369 27.8735 11.409 25.5637 13.7546ZM26.7544 3.98669C25.3061 2.51622 23.3751 1.70762 21.3212 1.70762H21.3195C19.2639 1.70762 17.3346 2.51622 15.888 3.98498C15.3199 4.55986 14.8542 5.2081 14.496 5.90922C14.1377 5.20808 13.6703 4.55986 13.104 3.98669C11.6574 2.51622 9.72803 1.70762 7.67243 1.70762H7.67073C5.61685 1.70762 3.68579 2.51622 2.23579 3.98669C-0.749515 7.01803 -0.749515 11.9463 2.26138 14.9982L14.496 26.4753L26.7544 14.9743C29.7397 11.9463 29.7397 7.01803 26.7544 3.98669Z" fill="#DF3D55"/>
<ellipse cx="7.5" cy="10" rx="6.5" ry="7" fill="#DF3D55"/>
<ellipse cx="21.5" cy="10" rx="6.5" ry="7" fill="#DF3D55"/>
<ellipse cx="14.5" cy="14" rx="8.5" ry="8" fill="#DF3D55"/>
<ellipse cx="14.5" cy="22" rx="3.5" ry="3" fill="#DF3D55"/>
</svg>
